<svg width="86" height="67" viewBox="0 0 86 67" fill="none" xmlns="http://www.w3.org/2000/svg">
<path d="M73.9582 48.7665C73.6612 48.7801 73.3645 48.7332 73.0863 48.6285C72.8082 48.5238 72.5544 48.3636 72.3404 48.1576C71.9399 47.7477 71.7126 47.2 71.7055 46.6277C71.6952 46.3327 71.7459 46.0387 71.8546 45.7641C71.9633 45.4896 72.1276 45.2403 72.3372 45.0318C72.5407 44.8187 72.7849 44.6484 73.0553 44.5307C73.3258 44.4131 73.6171 44.3506 73.9122 44.3468C74.2073 44.3403 74.5007 44.3933 74.7749 44.5025C75.049 44.6117 75.2983 44.775 75.5077 44.9825C75.7257 45.1827 75.899 45.4265 76.0163 45.6979C76.1337 45.9694 76.1924 46.2624 76.1888 46.5579C76.1992 46.8468 76.1481 47.1346 76.039 47.4023C75.9298 47.6701 75.765 47.9118 75.5554 48.1114C75.3478 48.3231 75.0991 48.4904 74.8244 48.603C74.5498 48.7156 74.2551 48.7713 73.9582 48.7665ZM76.1869 42.1197L73.2661 42.1651L74.7292 29.9143L79.1889 29.8449L76.1869 42.1187L76.1869 42.1197Z" fill="#4A4A4A"/>
<path d="M68.6793 48.5993L57.9218 48.495L61.0429 30.8026L71.5432 30.3712L71.0039 33.5263L63.7605 33.7531L63.1172 37.5221L68.8672 37.3874L68.3233 40.4981L62.5723 40.565L61.7205 45.4694L69.2165 45.4887L68.6764 48.5994L68.6793 48.5993ZM49.8062 48.4212C49.7267 48.4224 49.6454 48.4237 49.565 48.425L42.5894 48.3514L45.7229 31.4523L51.8334 31.1987C51.8977 31.1977 51.9734 31.1966 52.084 31.1948C53.1547 31.1198 54.2153 31.442 55.0622 32.0996C55.4708 32.4562 55.7931 32.9006 56.0049 33.3993C56.2167 33.898 56.3124 34.4381 56.2848 34.979C56.3088 35.8413 56.0865 36.6926 55.6437 37.4337C55.2289 38.1413 54.6048 38.7037 53.8571 39.0437C54.4311 39.3121 54.9109 39.7465 55.2341 40.2904C55.6199 40.9298 55.8194 41.6638 55.8101 42.41C55.8761 43.2264 55.7649 44.0474 55.484 44.817C55.2031 45.5867 54.759 46.2869 54.1822 46.8699C52.9728 47.9185 51.4106 48.4723 49.809 48.4202L49.8062 48.4212ZM47.2059 40.9135L46.3943 45.4815L49.5163 45.4782L49.6572 45.476C50.4154 45.5072 51.1616 45.2799 51.773 44.8316C52.0493 44.5984 52.2665 44.3035 52.407 43.9708C52.5475 43.6381 52.6072 43.277 52.5815 42.9169C52.56 41.5378 51.7927 40.8686 50.2393 40.8701L47.206 40.9173L47.2059 40.9135ZM51.1011 34.1756L51.0623 34.1762L48.4364 34.2624L47.7697 37.9864L50.5312 37.9208C51.1912 37.9398 51.8398 37.7461 52.3807 37.3684C52.6073 37.1874 52.7872 36.955 52.9054 36.6905C53.0236 36.4261 53.0766 36.1372 53.0599 35.8482C53.0206 34.7166 52.3714 34.1606 51.1418 34.1797L51.1012 34.1803L51.1011 34.1756ZM31.8912 48.4075C31.7682 48.4094 31.6424 48.4113 31.5184 48.4076C29.7298 48.4302 27.9953 47.7964 26.6449 46.6266C25.9658 46.0023 25.431 45.2382 25.0777 44.3872C24.7243 43.5362 24.5608 42.6187 24.5985 41.6983C24.5415 40.424 24.7422 39.1513 25.1888 37.956C25.6354 36.7606 26.3187 35.6672 27.198 34.7408C28.0772 33.8143 29.1345 33.0739 30.3067 32.5635C31.479 32.0532 32.7422 31.7834 34.0211 31.7703C34.0911 31.7692 34.1611 31.7681 34.2311 31.767C35.9344 31.7062 37.5982 32.2866 38.8922 33.3928C39.5816 34.0425 40.1218 34.8334 40.4754 35.7112C40.8291 36.589 40.988 37.5328 40.941 38.4776C41.0775 40.9828 40.2583 43.4468 38.6481 45.3746C37.8304 46.3285 36.814 47.0933 35.6698 47.6156C34.4779 48.1347 33.1918 48.4043 31.8912 48.4075ZM33.9462 34.5558L33.8412 34.5574C33.0576 34.5751 32.2869 34.7597 31.5807 35.0989C30.8746 35.4382 30.2493 35.9241 29.747 36.5242C28.5347 37.8616 27.8954 39.619 27.966 41.4204C27.9133 42.5361 28.2682 43.6328 28.9648 44.5072C29.3101 44.8909 29.7377 45.1922 30.2157 45.3886C30.6937 45.585 31.2099 45.6715 31.7261 45.6417L31.815 45.6404C32.5788 45.6369 33.3326 45.4674 34.024 45.1436C34.7153 44.8198 35.3276 44.3496 35.818 43.7656C37.0367 42.387 37.6741 40.5922 37.5972 38.7561C37.6502 37.6197 37.2958 36.5017 36.5973 35.6024C36.2649 35.2369 35.8527 34.9524 35.3925 34.7709C34.9324 34.5895 34.4366 34.5159 33.9434 34.5558L33.9462 34.5558ZM19.8267 48.0904L16.5663 48.0732L18.0024 41.1452L11.5278 41.2233L10.0895 48.0164L6.85049 47.9762L10.0128 32.9326L13.2717 32.7875L12.0495 38.6337L18.5231 38.4877L19.7209 32.5362L22.9797 32.3912L19.8276 48.0866L19.8267 48.0904Z" fill="#4A4A4A"/>
<path d="M16.1565 21.6787C15.8731 20.9132 15.4144 20.558 14.8034 20.5675C14.6236 20.5554 14.4433 20.5825 14.2751 20.647C14.107 20.7116 13.9549 20.8119 13.8297 20.9411C13.7044 21.0702 13.6089 21.2251 13.5498 21.3949C13.4907 21.5646 13.4695 21.7452 13.4877 21.924C13.5 22.7164 13.9587 23.0716 15.0543 23.6206C15.5549 23.8404 16.0121 24.1477 16.4042 24.528C16.5931 24.734 16.7387 24.9756 16.8323 25.2386C16.9259 25.5017 16.9657 25.7807 16.9493 26.0594C16.981 26.4824 16.9195 26.9072 16.7691 27.3039C16.6187 27.7007 16.3831 28.0599 16.0787 28.3562C15.7456 28.6827 15.3473 28.9355 14.9097 29.0984C14.4722 29.2612 14.0052 29.3305 13.5391 29.3015C12.8493 29.3076 12.1849 29.0427 11.6894 28.5642C11.4328 28.3247 11.2277 28.0358 11.0864 27.7149C10.9451 27.3941 10.8707 27.0479 10.8675 26.6975L11.9678 26.0916C12.0815 27.3164 12.6794 28.1638 13.7661 28.1469C14.0173 28.1678 14.27 28.135 14.5075 28.0509C14.745 27.9667 14.9618 27.8331 15.1434 27.6589C15.3251 27.4847 15.4675 27.2739 15.5611 27.0405C15.6547 26.8071 15.6974 26.5566 15.6864 26.3055C15.6726 25.4226 15.2363 25.0444 14.1872 24.5625C13.6574 24.3944 13.1897 24.0728 12.844 23.6385C12.4982 23.2043 12.2899 22.6772 12.2457 22.1245C12.2219 21.7561 12.2783 21.3869 12.4109 21.0422C12.5435 20.6976 12.7493 20.3856 13.0142 20.1277C13.2791 19.8697 13.5967 19.672 13.9453 19.548C14.294 19.4239 14.6654 19.3765 15.0341 19.4091C15.536 19.3997 16.026 19.562 16.4225 19.8689C16.819 20.1758 17.0982 20.6089 17.2137 21.0961L16.1565 21.6787Z" fill="#4A4A4A"/>
<path d="M25.3362 19.3614L26.5582 19.3424L24.8079 29.0614L23.5849 29.0805L24.4189 24.4933L20.1409 24.5599L19.3068 29.147L18.0839 29.1661L19.8352 19.447L21.0544 19.428L20.349 23.4018L24.6279 23.3352L25.3362 19.3614Z" fill="#4A4A4A"/>
<path d="M30.9664 29.0562C30.5041 29.0829 30.0416 29.0071 29.6122 28.8343C29.1827 28.6615 28.797 28.3961 28.4826 28.057C27.8087 27.257 27.4543 26.2372 27.4872 25.1929C27.4383 24.2859 27.5929 23.3794 27.94 22.5396C28.287 21.6997 28.8176 20.9477 29.493 20.3384C30.3827 19.5395 31.5399 19.1015 32.7369 19.1104C33.2002 19.0966 33.6611 19.1809 34.0893 19.3577C34.5175 19.5345 34.9033 19.7998 35.2212 20.136C35.8992 20.9233 36.2545 21.9366 36.2162 22.9738C36.265 23.8806 36.1103 24.7869 35.7633 25.6266C35.4163 26.4663 34.8857 27.2181 34.2103 27.8273C33.321 28.6268 32.1637 29.0653 30.9664 29.0562ZM32.5519 20.2908C32.0764 20.2981 31.608 20.4063 31.1777 20.6082C30.7474 20.8101 30.3652 21.1011 30.0564 21.4618C29.1621 22.4423 28.6934 23.7359 28.7529 25.0599C28.7815 26.8994 29.6334 27.8985 31.1515 27.8749C31.6274 27.87 32.0966 27.7629 32.5273 27.5608C32.9579 27.3587 33.3398 27.0664 33.647 26.7038C34.5415 25.7239 35.0102 24.4304 34.9505 23.1067C34.9219 21.2672 34.07 20.2672 32.5519 20.2908Z" fill="#4A4A4A"/>
<path d="M40.4059 28.8189L36.9877 28.8721L38.739 19.153L41.8177 19.1051C43.3632 19.0811 44.2264 19.8319 44.2479 21.2185C44.2589 21.707 44.121 22.1872 43.8523 22.5957C43.5836 23.0043 43.1969 23.3218 42.7433 23.5064C43.1266 23.6658 43.452 23.9379 43.6765 24.2863C43.9009 24.6347 44.0137 25.043 43.9998 25.4569C44.0346 25.9144 43.9644 26.3739 43.7944 26.8003C43.6245 27.2267 43.3594 27.6089 43.0192 27.9178C42.2864 28.5242 41.3577 28.8444 40.4059 28.8189ZM39.0443 24.2433L38.4411 27.672L40.4557 27.6406C41.9019 27.6181 42.7544 26.8935 42.7359 25.703C42.7207 24.7248 42.1249 24.1953 41.059 24.2119L39.0443 24.2433ZM39.7529 20.2921L39.2524 23.0852L41.1999 23.0549C42.3349 23.0372 43.0246 22.4273 43.0096 21.4633C42.9969 20.6521 42.5412 20.244 41.6549 20.2578L39.7529 20.2921Z" fill="#4A4A4A"/>
</svg>
